<?xml version="1.0" encoding="utf-8"?>
<!-- Generator: Adobe Illustrator 23.1.0, SVG Export Plug-In . SVG Version: 6.00 Build 0)  -->
<svg version="1.2" baseProfile="tiny" id="Layer_1" xmlns="http://www.w3.org/2000/svg" xmlns:xlink="http://www.w3.org/1999/xlink"
	 x="0px" y="0px" viewBox="0 0 425.2 161.57" xml:space="preserve">
<g>
	<g>
		<g>
			<path fill="#FF0000" d="M15.44,4.79h3.2c6.14,0.73,12.67,2.18,17.02,6.95c5.3,5.61,6.76,13.65,7.17,21.09
				c0.31,12.94-0.03,25.89,0.18,38.83c0.9,13.94,13.67,25.81,27.64,25.65c14.52,0.63,28.12-11.91,28.51-26.46
				c0.04-22.02,0-44.04,0.02-66.06h1c7.14,0.3,14.92,1.89,19.76,7.62c5.42,6.87,6.11,15.98,6.35,24.39
				c0.13,11.67,0.06,23.34,0.04,35c-0.01,13.65-5.12,27.27-14.32,37.38c-6.49,7.08-14.74,12.62-23.89,15.61h-34.3
				c-11.15-3.58-21-10.91-27.86-20.37C18.9,94.74,15.42,82.7,15.44,70.77C15.45,48.78,15.44,26.78,15.44,4.79z"/>
		</g>
		<g>
			<g>
				<path fill="#FFCB00" d="M380.16,4.79h3.83c5.61,0.67,11.36,2.13,15.73,5.91c9.69,7.4,13.47,21.55,8.34,32.7
					c-4.06,9.84-14.18,16.47-24.74,16.82c-9.47-10.05-19.09-19.95-28.51-30.04c0.59-6.67,3.47-13.2,8.41-17.78
					C367.83,8.05,373.9,5.52,380.16,4.79z M376.49,15.62c-2.44,7.49-4.66,15.05-7.13,22.52c1.73,0,3.47,0,5.21-0.01
					c0.16,1.95,0.2,3.9,0.22,5.85c0.85-0.01,2.55-0.02,3.4-0.03c0.01-1.93,0.02-3.86,0.05-5.79c3.18-0.04,6.36-0.04,9.55-0.01
					c-0.03,1.94-0.03,3.88-0.04,5.82c0.84,0,2.53-0.01,3.38-0.02c0-1.94,0-3.87,0-5.81c1.77,0,3.53-0.01,5.31-0.01
					c-2.32-7.55-4.73-15.08-6.98-22.65c-2.06,7.07-4.46,14.02-6.5,21.1C380.77,29.6,378.75,22.58,376.49,15.62z"/>
			</g>
		</g>
		<g>
			<path fill="#0000FF" d="M168.99,10.32c10.31-4.63,23.34-2.38,31.22,5.81c17.62,18.44,35.03,37.08,52.7,55.49
				c7.26,8.29,16.49,15.7,19.73,26.66c2.85,9.57-2.79,19.05-9.52,25.46c-8.06-9.08-16.91-17.42-25.14-26.35
				c-3.12-2.91-5.77-6.39-9.35-8.77c-2.74-1.58-5.94-2.26-9.08-2.23c-24.21,0.06-48.43-0.05-72.64,0.06
				c0.02-5.3,1.19-11.2,5.62-14.63c4.58-3.36,10.52-3.87,16.02-4.07c13.7,0.1,27.42-0.16,41.12,0.14
				c-9.69-10.05-19.6-19.88-29.31-29.91c-18.4,19.33-37.02,38.46-55.4,57.82c3.65-7.47,5.72-15.72,5.84-24.04
				c0.09-7.97-0.09-15.94,0.06-23.9c6.52-7.64,13.77-14.79,20.64-22.17C157.02,20.27,161.57,13.32,168.99,10.32z"/>
			<path fill="#0000FF" d="M296.59,15.72c10.38-10.76,29.49-10.58,39.61,0.46c20.11,20.9,40.07,41.94,60.11,62.9
				c6.31,6.59,12.67,14.26,13.5,23.72c0.43,8.22-4.83,15.28-10.24,20.91c-8.69-8.95-17.43-17.84-26.06-26.84
				c-3.64-3.29-6.5-7.84-11.37-9.42c-2.09-0.77-4.32-1.08-6.53-1.06c-24.38,0.05-48.77-0.03-73.15,0.04
				c0.22-4.93,1.08-10.37,4.85-13.92c4.45-3.84,10.62-4.5,16.26-4.74c13.75-0.01,27.5-0.03,41.25,0.01
				c-9.54-9.97-19.18-19.86-28.76-29.8C301,53.29,286.05,68.69,271.05,84.04c-5.77-7.7-13.04-14.1-19.45-21.25
				C266.6,47.11,281.53,31.35,296.59,15.72z"/>
		</g>
		<g>
			<path fill="#009833" d="M376.49,15.62c2.26,6.96,4.28,13.98,6.47,20.96c2.04-7.08,4.44-14.03,6.5-21.1
				c2.25,7.57,4.66,15.1,6.98,22.65c-1.78,0-3.54,0.01-5.31,0.01c0,1.94,0,3.87,0,5.81c-0.85,0.01-2.54,0.02-3.38,0.02
				c0.01-1.94,0.01-3.88,0.04-5.82c-3.19-0.03-6.37-0.03-9.55,0.01c-0.03,1.93-0.04,3.86-0.05,5.79c-0.85,0.01-2.55,0.02-3.4,0.03
				c-0.02-1.95-0.06-3.9-0.22-5.85c-1.74,0.01-3.48,0.01-5.21,0.01C371.83,30.67,374.05,23.11,376.49,15.62z"/>
		</g>
	</g>
	<g>
		<path d="M19.54,159.37c-2.17,0-4.06-0.23-5.68-0.69s-2.98-1.11-4.09-1.96s-1.95-1.88-2.53-3.08s-0.93-2.55-1.03-4.06h2.31
			c0.23,1.45,0.67,2.65,1.32,3.6c0.64,0.96,1.44,1.72,2.39,2.29c0.95,0.57,2.03,0.97,3.24,1.2s2.5,0.35,3.87,0.35
			c1.43,0,2.71-0.15,3.85-0.45c1.14-0.3,2.12-0.74,2.93-1.32c0.81-0.58,1.43-1.27,1.86-2.08c0.43-0.81,0.64-1.72,0.64-2.74
			c0-1.07-0.19-1.98-0.56-2.71s-1-1.37-1.88-1.92c-0.88-0.55-2.04-1.04-3.47-1.46c-1.44-0.43-3.22-0.87-5.35-1.32
			c-1.76-0.39-3.27-0.84-4.53-1.35c-1.26-0.51-2.3-1.1-3.12-1.77s-1.43-1.45-1.82-2.31c-0.39-0.87-0.59-1.88-0.59-3.03
			c0-1.25,0.26-2.39,0.79-3.43c0.53-1.04,1.27-1.92,2.24-2.67c0.97-0.74,2.13-1.32,3.49-1.73s2.86-0.62,4.5-0.62
			s3.14,0.19,4.51,0.57s2.56,0.93,3.59,1.66c1.03,0.72,1.86,1.6,2.49,2.64c0.63,1.04,1.04,2.21,1.22,3.52h-2.26
			c-0.21-0.86-0.57-1.66-1.05-2.4c-0.49-0.74-1.12-1.38-1.89-1.92c-0.77-0.54-1.69-0.96-2.75-1.26c-1.06-0.3-2.28-0.45-3.65-0.45
			c-2.87,0-5.04,0.53-6.52,1.58s-2.21,2.5-2.21,4.34c0,0.84,0.14,1.57,0.41,2.2c0.27,0.63,0.74,1.19,1.39,1.68s1.52,0.94,2.59,1.32
			s2.41,0.74,4.01,1.07c0.94,0.2,1.9,0.4,2.9,0.62c1,0.22,1.97,0.47,2.92,0.76s1.85,0.65,2.71,1.08c0.86,0.43,1.61,0.96,2.24,1.58
			c0.63,0.63,1.14,1.37,1.52,2.24c0.38,0.87,0.57,1.9,0.57,3.09c0,1.37-0.29,2.62-0.86,3.76s-1.38,2.13-2.4,2.96
			c-1.03,0.83-2.25,1.48-3.66,1.93S21.2,159.37,19.54,159.37z"/>
		<path d="M50.39,159.37c-1.91,0-3.55-0.2-4.91-0.6s-2.49-0.94-3.38-1.63c-0.9-0.68-1.61-1.48-2.14-2.4
			c-0.53-0.92-0.93-1.89-1.2-2.93c-0.27-1.04-0.44-2.11-0.51-3.22s-0.1-2.2-0.1-3.25v-18.63h2.34v18.54c0,2.44,0.22,4.43,0.66,5.96
			c0.44,1.53,1.08,2.73,1.93,3.59c0.85,0.86,1.88,1.45,3.11,1.76c1.22,0.31,2.62,0.47,4.2,0.47c1.6,0,3.02-0.16,4.26-0.47
			c1.24-0.31,2.27-0.9,3.11-1.77c0.83-0.87,1.46-2.07,1.89-3.59c0.43-1.52,0.64-3.51,0.64-5.95v-18.54h2.34v18.63
			c0,2.21-0.19,4.18-0.56,5.92c-0.37,1.74-1.02,3.21-1.93,4.41c-0.92,1.2-2.17,2.12-3.75,2.75S52.81,159.37,50.39,159.37z"/>
		<path d="M71.01,126.71h11.66c1.56,0,3.07,0.13,4.51,0.38c1.45,0.25,2.72,0.72,3.82,1.39c1.1,0.67,1.98,1.59,2.64,2.74
			c0.65,1.15,0.98,2.62,0.98,4.39c0,3.15-0.99,5.54-2.97,7.18c-1.98,1.64-4.88,2.46-8.69,2.46h-9.61v13.54h-2.34V126.71z
			 M73.35,142.91h9.7c1.64,0,3.04-0.16,4.19-0.47c1.15-0.31,2.09-0.77,2.83-1.38c0.73-0.6,1.26-1.35,1.6-2.24
			c0.33-0.89,0.5-1.92,0.5-3.09c0-1.43-0.25-2.58-0.75-3.46s-1.17-1.56-2.02-2.04c-0.85-0.48-1.83-0.8-2.94-0.95
			c-1.11-0.16-2.29-0.23-3.52-0.23h-9.58V142.91z"/>
		<path d="M124.59,158.79h-23.17v-32.08h22.38v2.34h-20.04v11.87h18.78v2.34h-18.78v13.18h20.83V158.79z"/>
		<path d="M157.49,158.79h-2.58l-3.19-8.53c-0.31-0.82-0.66-1.59-1.04-2.31c-0.38-0.72-0.83-1.35-1.33-1.89
			c-0.51-0.54-1.09-0.96-1.74-1.27c-0.65-0.31-1.42-0.47-2.3-0.47h-11.22v14.47h-2.34v-32.08h14.44c1.35,0,2.65,0.12,3.91,0.37
			c1.26,0.24,2.38,0.68,3.37,1.3c0.99,0.63,1.77,1.49,2.36,2.59c0.59,1.1,0.88,2.52,0.88,4.23c0,1.07-0.13,2.08-0.4,3
			c-0.26,0.93-0.66,1.76-1.2,2.49c-0.54,0.73-1.22,1.36-2.05,1.88c-0.83,0.52-1.8,0.89-2.92,1.13c0.6,0.47,1.1,0.92,1.49,1.35
			c0.39,0.43,0.73,0.89,1.01,1.38c0.28,0.49,0.54,1.03,0.76,1.61c0.22,0.59,0.48,1.26,0.78,2.02L157.49,158.79z M134.09,141.97
			h11.13c1.58,0,2.94-0.12,4.07-0.35c1.13-0.23,2.07-0.62,2.8-1.16c0.73-0.54,1.27-1.23,1.63-2.09c0.35-0.86,0.53-1.91,0.53-3.16
			c0-2.21-0.7-3.78-2.09-4.73c-1.4-0.95-3.48-1.42-6.25-1.42h-11.81V141.97z"/>
		<path d="M194.5,158.79h-2.34v-28.24l-11.54,28.24h-2.46l-11.51-28.24v28.24h-2.34v-32.08h3.4l11.69,29.15l11.78-29.15h3.34V158.79
			z"/>
		<path d="M225.82,158.79h-23.17v-32.08h22.38v2.34h-20.04v11.87h18.78v2.34h-18.78v13.18h20.83V158.79z"/>
		<path d="M258.72,158.79h-2.58l-3.19-8.53c-0.31-0.82-0.66-1.59-1.04-2.31c-0.38-0.72-0.83-1.35-1.33-1.89
			c-0.51-0.54-1.09-0.96-1.74-1.27c-0.65-0.31-1.42-0.47-2.3-0.47h-11.22v14.47h-2.34v-32.08h14.44c1.35,0,2.65,0.12,3.91,0.37
			c1.26,0.24,2.38,0.68,3.37,1.3c0.99,0.63,1.77,1.49,2.36,2.59c0.59,1.1,0.88,2.52,0.88,4.23c0,1.07-0.13,2.08-0.4,3
			c-0.26,0.93-0.66,1.76-1.2,2.49c-0.54,0.73-1.22,1.36-2.05,1.88c-0.83,0.52-1.8,0.89-2.92,1.13c0.6,0.47,1.1,0.92,1.49,1.35
			c0.39,0.43,0.73,0.89,1.01,1.38c0.28,0.49,0.54,1.03,0.76,1.61c0.22,0.59,0.48,1.26,0.78,2.02L258.72,158.79z M235.31,141.97
			h11.13c1.58,0,2.94-0.12,4.07-0.35c1.13-0.23,2.07-0.62,2.8-1.16c0.73-0.54,1.27-1.23,1.63-2.09c0.35-0.86,0.53-1.91,0.53-3.16
			c0-2.21-0.7-3.78-2.09-4.73c-1.4-0.95-3.48-1.42-6.25-1.42h-11.81V141.97z"/>
		<path d="M289.16,135.29c-0.22-0.96-0.62-1.85-1.2-2.68c-0.59-0.83-1.32-1.55-2.2-2.17s-1.89-1.1-3.03-1.45s-2.37-0.53-3.68-0.53
			c-1.86,0-3.54,0.3-5.05,0.91c-1.51,0.61-2.8,1.5-3.87,2.68c-1.06,1.18-1.89,2.66-2.46,4.42c-0.58,1.77-0.86,3.82-0.86,6.17
			s0.29,4.41,0.86,6.2c0.58,1.79,1.4,3.29,2.46,4.5c1.06,1.21,2.34,2.13,3.84,2.75c1.49,0.63,3.16,0.94,5,0.94
			c2.77,0,5.06-0.62,6.86-1.86c1.8-1.24,2.91-3.05,3.34-5.43h2.43c-0.23,1.52-0.71,2.89-1.44,4.09c-0.72,1.2-1.63,2.21-2.72,3.03
			c-1.09,0.82-2.35,1.45-3.78,1.88c-1.43,0.43-2.97,0.64-4.63,0.64c-2.27,0-4.3-0.4-6.11-1.19c-1.81-0.79-3.34-1.91-4.61-3.35
			c-1.27-1.45-2.25-3.2-2.93-5.26c-0.68-2.06-1.03-4.37-1.03-6.93c0-2.54,0.34-4.82,1.03-6.86c0.68-2.03,1.67-3.76,2.94-5.2
			c1.28-1.44,2.82-2.54,4.63-3.31c1.81-0.77,3.83-1.16,6.08-1.16c1.54,0,3.01,0.22,4.41,0.67c1.4,0.45,2.65,1.08,3.76,1.89
			c1.11,0.81,2.05,1.78,2.81,2.9c0.76,1.12,1.29,2.36,1.58,3.71H289.16z"/>
		<path d="M324.11,158.79h-2.81l-3.93-10.31h-15.79c-0.57,1.62-1.18,3.34-1.85,5.14c-0.66,1.81-1.3,3.53-1.9,5.17h-2.49
			c1.05-2.77,2.09-5.49,3.12-8.14c1.03-2.66,2.05-5.3,3.06-7.92c1.02-2.63,2.04-5.27,3.06-7.92c1.03-2.66,2.07-5.36,3.12-8.12h3.31
			L324.11,158.79z M316.69,146.63l-7.44-17.84l-7.06,17.84H316.69z"/>
		<path d="M354.99,142.5c0,10.86-5.4,16.29-16.2,16.29h-9.7v-32.05h9.7c5.41,0,9.46,1.3,12.16,3.91S354.99,137.21,354.99,142.5z
			 M352.49,142.5c0-2.11-0.21-3.99-0.63-5.65c-0.42-1.66-1.16-3.07-2.21-4.23c-1.05-1.16-2.47-2.05-4.23-2.65
			c-1.77-0.6-4-0.91-6.69-0.91h-7.29v27.39h7.29c2.68,0,4.9-0.31,6.67-0.94c1.77-0.63,3.18-1.54,4.23-2.74s1.8-2.66,2.23-4.38
			C352.28,146.67,352.49,144.71,352.49,142.5z"/>
		<path d="M375.55,126.12c2.19,0,4.21,0.39,6.06,1.17c1.86,0.78,3.45,1.89,4.79,3.34c1.34,1.45,2.38,3.18,3.13,5.21
			c0.75,2.03,1.13,4.3,1.13,6.8c0,2.48-0.37,4.75-1.11,6.8c-0.74,2.05-1.78,3.81-3.12,5.29c-1.34,1.48-2.93,2.62-4.78,3.43
			s-3.88,1.22-6.11,1.22s-4.27-0.41-6.12-1.22c-1.86-0.81-3.45-1.95-4.79-3.41c-1.34-1.46-2.38-3.22-3.12-5.27
			c-0.74-2.05-1.11-4.33-1.11-6.83c0-2.52,0.38-4.79,1.13-6.83c0.75-2.03,1.8-3.76,3.15-5.2s2.94-2.54,4.79-3.33
			C371.32,126.51,373.34,126.12,375.55,126.12z M375.52,157.03c1.84,0,3.53-0.32,5.08-0.95c1.55-0.63,2.9-1.57,4.03-2.8
			c1.13-1.23,2.01-2.74,2.64-4.53c0.63-1.79,0.94-3.82,0.94-6.11c0-2.3-0.32-4.34-0.95-6.09c-0.63-1.76-1.51-3.24-2.64-4.44
			c-1.12-1.2-2.45-2.11-3.98-2.72c-1.53-0.62-3.21-0.92-5.02-0.92c-1.86,0-3.56,0.31-5.11,0.94c-1.55,0.63-2.9,1.54-4.03,2.74
			c-1.13,1.2-2.02,2.68-2.65,4.44c-0.63,1.76-0.95,3.78-0.95,6.06s0.31,4.32,0.94,6.11c0.63,1.79,1.5,3.3,2.62,4.53
			c1.12,1.23,2.46,2.16,4.01,2.8C371.99,156.71,373.69,157.03,375.52,157.03z"/>
		<path d="M409.21,159.37c-2.17,0-4.06-0.23-5.68-0.69c-1.62-0.46-2.98-1.11-4.09-1.96c-1.1-0.85-1.95-1.88-2.53-3.08
			s-0.93-2.55-1.03-4.06h2.31c0.23,1.45,0.67,2.65,1.32,3.6c0.64,0.96,1.44,1.72,2.39,2.29c0.95,0.57,2.03,0.97,3.24,1.2
			c1.21,0.23,2.5,0.35,3.87,0.35c1.43,0,2.71-0.15,3.85-0.45c1.14-0.3,2.12-0.74,2.93-1.32c0.81-0.58,1.43-1.27,1.86-2.08
			c0.43-0.81,0.64-1.72,0.64-2.74c0-1.07-0.19-1.98-0.56-2.71c-0.37-0.73-1-1.37-1.88-1.92c-0.88-0.55-2.04-1.04-3.47-1.46
			c-1.44-0.43-3.22-0.87-5.35-1.32c-1.76-0.39-3.27-0.84-4.53-1.35c-1.26-0.51-2.3-1.1-3.12-1.77s-1.43-1.45-1.82-2.31
			c-0.39-0.87-0.59-1.88-0.59-3.03c0-1.25,0.26-2.39,0.79-3.43c0.53-1.04,1.27-1.92,2.24-2.67c0.97-0.74,2.13-1.32,3.49-1.73
			c1.36-0.41,2.86-0.62,4.5-0.62s3.14,0.19,4.51,0.57c1.37,0.38,2.56,0.93,3.59,1.66c1.03,0.72,1.86,1.6,2.49,2.64
			c0.63,1.04,1.04,2.21,1.22,3.52h-2.26c-0.22-0.86-0.57-1.66-1.05-2.4c-0.49-0.74-1.12-1.38-1.89-1.92
			c-0.77-0.54-1.69-0.96-2.75-1.26c-1.06-0.3-2.28-0.45-3.65-0.45c-2.87,0-5.04,0.53-6.52,1.58c-1.48,1.05-2.21,2.5-2.21,4.34
			c0,0.84,0.14,1.57,0.41,2.2c0.27,0.63,0.74,1.19,1.39,1.68c0.65,0.5,1.52,0.94,2.59,1.32c1.07,0.38,2.41,0.74,4.01,1.07
			c0.94,0.2,1.9,0.4,2.9,0.62c1,0.22,1.97,0.47,2.92,0.76c0.95,0.29,1.85,0.65,2.71,1.08c0.86,0.43,1.61,0.96,2.24,1.58
			c0.63,0.63,1.14,1.37,1.52,2.24c0.38,0.87,0.57,1.9,0.57,3.09c0,1.37-0.29,2.62-0.86,3.76c-0.58,1.14-1.38,2.13-2.4,2.96
			c-1.03,0.83-2.25,1.48-3.66,1.93C412.41,159.14,410.87,159.37,409.21,159.37z"/>
	</g>
</g>
</svg>
